<?xml version="1.0" encoding="UTF-8"?>
<!DOCTYPE svg PUBLIC "-//W3C//DTD SVG 1.1//EN" "http://www.w3.org/Graphics/SVG/1.1/DTD/svg11.dtd">
<!-- Creator: CorelDRAW 2017 -->
<svg xmlns="http://www.w3.org/2000/svg" xml:space="preserve" width="45.9301mm" height="17.454mm" version="1.1" style="shape-rendering:geometricPrecision; text-rendering:geometricPrecision; image-rendering:optimizeQuality; fill-rule:evenodd; clip-rule:evenodd"
viewBox="0 0 4593 1745"
 xmlns:xlink="http://www.w3.org/1999/xlink">
 <defs>
  <style type="text/css">
   <![CDATA[
    .fil1 {fill:#FEFEFE}
    .fil0 {fill:#FEFEFE;fill-rule:nonzero}
   ]]>
  </style>
 </defs>
 <g id="Capa_x0020_1">
  <metadata id="CorelCorpID_0Corel-Layer"/>
  <g id="_2521124784272">
   <path class="fil0" d="M2664 1727c0,10 9,19 19,19 96,0 173,-78 173,-173l0 -300c0,-12 -9,-19 -19,-19 -9,0 -19,6 -19,19l0 300c0,74 -62,136 -136,136 -10,0 -19,10 -19,19zm479 -475c-53,0 -99,24 -128,58l0 -190c0,-8 -9,-17 -18,-17 -12,0 -17,9 -17,17l0 436c0,8 9,17 17,17 12,0 18,-9 18,-17l0 -143 0 -3c0,-70 58,-123 128,-123 73,0 132,53 132,123l0 146c0,8 6,17 17,17 9,0 18,-9 18,-17l0 -146c0,-88 -73,-158 -167,-158zm264 158c0,90 73,164 164,164 90,0 163,-73 163,-164 0,-42 -17,-82 -47,-114 -31,-31 -72,-47 -116,-47 -91,0 -164,74 -164,161zm293 0c0,71 -58,129 -128,129 -71,0 -126,-58 -126,-129 0,-67 55,-126 126,-126 34,0 67,12 90,39 24,23 38,56 38,87zm297 -159c-89,0 -161,69 -161,159l0 146c0,9 8,17 17,17 12,0 17,-8 17,-17l3 -146c0,-69 55,-124 124,-124 69,0 124,55 124,124l0 144c0,8 8,17 20,17 9,0 17,-9 17,-17l0 -144c0,-89 -72,-159 -161,-159zm436 0c-89,0 -161,69 -161,159l0 146c0,9 8,17 17,17 12,0 17,-8 17,-17l3 -146c0,-69 55,-124 124,-124 69,0 124,55 124,124l0 144c0,8 8,17 20,17 9,0 17,-9 17,-17l0 -144c0,-89 -72,-159 -161,-159z"/>
   <path class="fil0" d="M812 876l-42 0c-12,0 -22,-4 -30,-12 -8,-8 -12,-18 -12,-30 0,-12 4,-22 12,-30 8,-8 18,-12 30,-12l169 0c12,0 22,4 30,12 8,8 12,18 12,30 0,12 -4,22 -12,30 -8,8 -18,12 -30,12l-42 0 0 211c0,12 -4,22 -12,30 -8,8 -18,12 -30,12 -12,0 -22,-4 -30,-12 -8,-8 -12,-18 -12,-30l0 -211zm255 -30c17,-8 35,-12 55,-12 35,0 65,12 90,37 6,6 12,13 16,20 7,8 10,17 10,28 0,12 -4,22 -12,30 -8,8 -18,12 -30,12 -12,0 -22,-4 -30,-12l-14 -18c-8,-8 -18,-12 -30,-12 -12,0 -22,4 -30,12 -8,8 -12,18 -12,30l0 127c0,12 -4,22 -12,30 -8,8 -18,12 -30,12 -12,0 -22,-4 -30,-12 -8,-8 -12,-18 -12,-30l0 -211c0,-12 4,-22 12,-30 8,-8 18,-12 30,-12 12,0 21,4 30,12zm362 199c17,0 32,-6 45,-19 12,-12 19,-27 19,-45 0,-17 -6,-32 -19,-45 -12,-12 -27,-19 -45,-19 -17,0 -32,6 -45,19 -12,12 -19,27 -19,45 0,17 6,32 19,45 12,12 27,19 45,19zm71 67c-21,12 -45,18 -71,18 -41,0 -76,-14 -105,-43 -29,-29 -43,-64 -43,-105 0,-41 14,-76 43,-105 29,-29 64,-43 105,-43 26,0 50,6 71,18 1,-2 3,-4 5,-6 8,-8 18,-12 30,-12 12,0 22,4 30,12 8,8 12,18 12,30l0 211c0,12 -4,22 -12,30 -8,8 -18,12 -30,12 -12,0 -22,-4 -30,-12 -2,-2 -3,-3 -5,-5zm124 -215c-2,-6 -4,-13 -5,-21 0,-12 4,-22 12,-30 8,-8 18,-12 30,-12 12,0 22,4 30,12 5,7 10,15 12,25l0 0 42 100 42 -100 0 0c3,-9 7,-18 12,-25 8,-8 18,-12 30,-12 12,0 22,4 30,12 8,8 12,18 12,30 -1,8 -3,15 -5,21l-79 196c-3,9 -7,18 -12,25 -8,8 -18,12 -30,12 -12,0 -22,-4 -30,-12 -6,-7 -10,-15 -12,-25l-79 -196zm392 127c1,1 2,2 2,3 12,12 27,19 45,19l63 0c12,0 22,4 30,12 8,8 12,18 12,30 0,12 -4,22 -12,30 -8,8 -18,12 -30,12l-63 0c-41,0 -76,-14 -105,-43 -29,-29 -43,-64 -43,-105 0,-41 14,-76 43,-105 29,-29 64,-43 105,-43 41,0 76,15 105,43 29,29 43,64 43,105 0,12 -4,22 -12,30 -8,8 -18,12 -30,12l-153 0zm94 -85c-1,-1 -1,-2 -2,-3 -12,-12 -27,-19 -45,-19 -17,0 -32,6 -45,19 -1,1 -2,2 -2,3l94 0zm228 148c0,12 -4,22 -12,30 -8,8 -18,12 -30,12 -12,0 -22,-4 -30,-12 -8,-8 -12,-18 -12,-30l0 -254c0,-12 4,-22 12,-30 8,-8 18,-12 30,-12 12,0 22,4 30,12 8,8 12,18 12,30l0 254z"/>
   <path class="fil1" d="M2654 440c50,16 271,-1 345,-1 -91,285 -245,107 -248,261l84 30c-27,78 -188,283 -249,338 -119,106 -187,166 -335,250 -550,309 -1295,220 -1752,-221 -97,-93 -186,-186 -264,-320 -38,-66 -66,-120 -102,-195 -31,-63 -50,-154 -81,-213 -73,-6 -51,37 -36,84 13,39 24,84 39,122 61,162 135,279 229,415 26,37 49,55 74,87 27,35 52,53 78,82 160,179 503,384 837,441 572,97 1041,-68 1439,-423 32,-29 55,-54 78,-82 92,-111 115,-122 205,-275 72,43 38,58 94,59 62,-65 -2,-111 -5,-181 -1,-27 65,-134 81,-157 25,23 103,173 132,222 38,65 23,56 55,68 23,-13 54,-63 56,-89 1,-17 -23,-88 -30,-110 -97,-326 -116,-266 -29,-417 36,-63 89,-149 9,-197 -92,-55 -139,43 -168,97 -57,104 -32,105 -151,137 -36,10 -322,77 -341,91 -10,7 -26,33 -32,44 -14,26 -20,30 -10,55z"/>
  </g>
 </g>
</svg>
